<svg width="18" height="20" viewBox="0 0 18 20" fill="none" xmlns="http://www.w3.org/2000/svg">
<path d="M16.5 16.69L4.34 4.14L1.77 1.49L0.5 2.76L3.3 5.56V5.57C2.78 6.56 2.5 7.73 2.5 8.99V13.99L0.5 15.99V16.99H14.23L16.23 18.99L17.5 17.72L16.5 16.69ZM8.5 20C9.61 20 10.5 19.11 10.5 18H6.5C6.5 19.11 7.39 20 8.5 20ZM14.5 12.68V9C14.5 5.92 12.86 3.36 10 2.68V2C10 1.17 9.33 0.5 8.5 0.5C7.67 0.5 7 1.17 7 2V2.68C6.85 2.71 6.71 2.76 6.58 2.8C6.48 2.83 6.38 2.87 6.28 2.91H6.27C6.26 2.91 6.26 2.91 6.25 2.92C6.02 3.01 5.79 3.12 5.57 3.23C5.57 3.23 5.56 3.23 5.56 3.24L14.5 12.68Z" fill="black" fill-opacity="0.6"/>
</svg>
