<svg width="21" height="20" viewBox="0 0 21 20" fill="none" xmlns="http://www.w3.org/2000/svg">
<path d="M6.08 2.08L4.65 0.65C2.25 2.48 0.669999 5.3 0.529999 8.5H2.53C2.68 5.85 4.04 3.53 6.08 2.08ZM18.47 8.5H20.47C20.32 5.3 18.74 2.48 16.35 0.65L14.93 2.08C16.95 3.53 18.32 5.85 18.47 8.5ZM16.5 9C16.5 5.93 14.86 3.36 12 2.68V2C12 1.17 11.33 0.5 10.5 0.5C9.67 0.5 9 1.17 9 2V2.68C6.13 3.36 4.5 5.92 4.5 9V14L2.5 16V17H18.5V16L16.5 14V9ZM10.5 20C10.64 20 10.77 19.99 10.9 19.96C11.55 19.82 12.08 19.38 12.34 18.78C12.44 18.54 12.49 18.28 12.49 18H8.49C8.5 19.1 9.39 20 10.5 20Z" fill="black" fill-opacity="0.6"/>
</svg>
